<svg xmlns="http://www.w3.org/2000/svg" xmlns:xlink="http://www.w3.org/1999/xlink" width="600" zoomAndPan="magnify" viewBox="0 0 450 449.999984" height="600" preserveAspectRatio="xMidYMid meet" version="1.0"><path fill="#eaeaea" d="M 83.980469 336.003906 C 64.457031 341.25 43.226562 336.257812 28.050781 322.234375 C 10.25 305.785156 4.1875 280.1875 12.71875 257.503906 C 19.460938 239.574219 34.261719 226.28125 52.128906 221.179688 C 49.09375 203.335938 50.0625 184.757812 60.164062 169.078125 C 76.171875 144.234375 108.335938 137.070312 136.523438 135.460938 C 153.765625 97.414062 194.519531 74.976562 236.476562 81.554688 C 276.535156 87.832031 254.523438 135.761719 261.40625 174.667969 C 268.847656 174.785156 251.476562 180.765625 257.882812 184.96875 C 263.058594 188.367188 344.953125 172.246094 348.003906 177.429688 C 358.617188 173.390625 249.8125 224.316406 260.378906 229.792969 C 273.488281 236.582031 402.574219 199.214844 403.320312 213.375 C 427.039062 222.140625 444.6875 242.996094 449.003906 268.484375 C 453.941406 297.617188 440.203125 327.101562 414.722656 342.0625 C 393.15625 354.730469 366.769531 355.023438 345.171875 343.648438 C 339.035156 350.078125 330.753906 354.316406 321.617188 355.371094 C 312.050781 356.472656 302.601562 353.964844 294.972656 348.613281 C 247.210938 385.566406 179.898438 384.953125 132.78125 346.78125 C 124.449219 350.128906 115.191406 350.90625 106.308594 348.855469 C 97.675781 346.863281 89.929688 342.351562 83.980469 336.003906 Z M 83.980469 336.003906 " fill-opacity="1" fill-rule="evenodd"/><path fill="#ffffff" d="M 75.078125 329.714844 C 55.554688 334.960938 34.324219 329.96875 19.144531 315.941406 C 1.347656 299.492188 -4.714844 273.898438 3.816406 251.210938 C 10.558594 233.28125 25.355469 219.992188 43.226562 214.890625 C 40.191406 197.046875 41.160156 178.464844 51.261719 162.789062 C 67.269531 137.941406 99.429688 130.777344 127.621094 129.167969 C 144.863281 91.121094 185.617188 68.6875 227.574219 75.261719 C 267.632812 81.539062 298.542969 112.632812 305.425781 151.539062 C 312.867188 151.65625 320.238281 153.855469 326.640625 158.058594 C 331.820312 161.457031 336.050781 165.957031 339.101562 171.136719 C 349.714844 167.097656 361.871094 167.511719 372.441406 172.984375 C 385.550781 179.777344 393.671875 192.925781 394.417969 207.082031 C 418.136719 215.847656 435.785156 236.703125 440.101562 262.191406 C 445.035156 291.328125 431.300781 320.808594 405.820312 335.773438 C 384.253906 348.4375 357.867188 348.730469 336.269531 337.355469 C 330.132812 343.785156 321.851562 348.023438 312.714844 349.078125 C 303.148438 350.183594 293.699219 347.671875 286.070312 342.324219 C 238.308594 379.273438 170.996094 378.664062 123.878906 340.488281 C 115.546875 343.835938 106.289062 344.613281 97.40625 342.566406 C 88.773438 340.574219 81.023438 336.058594 75.078125 329.714844 Z M 75.078125 329.714844 " fill-opacity="1" fill-rule="evenodd"/><path fill="#ffffff" d="M 125.597656 325.425781 C 118.222656 330.605469 108.996094 332.40625 100.214844 330.378906 C 91.4375 328.351562 83.933594 322.691406 79.574219 314.808594 C 62.234375 322.9375 41.699219 319.753906 27.632812 306.757812 C 13.570312 293.761719 8.78125 273.539062 15.519531 255.613281 C 22.261719 237.6875 39.191406 225.632812 58.332031 225.125 C 43.320312 170.796875 69.28125 142.867188 136.214844 141.34375 C 149.089844 104.152344 186.757812 81.523438 225.636719 87.617188 C 264.519531 93.710938 293.457031 126.777344 294.339844 166.121094 C 302.691406 162.65625 312.21875 163.550781 319.78125 168.515625 C 327.34375 173.476562 331.957031 181.859375 332.101562 190.902344 C 340.632812 180.847656 354.980469 178.023438 366.6875 184.089844 C 378.398438 190.15625 384.363281 203.503906 381.070312 216.273438 C 405.09375 221.027344 423.679688 240.132812 427.773438 264.28125 C 431.863281 288.425781 420.605469 312.589844 399.488281 324.992188 C 378.371094 337.390625 351.785156 335.449219 332.691406 320.117188 C 329.175781 329.175781 320.933594 335.542969 311.28125 336.65625 C 301.628906 337.769531 292.152344 333.445312 286.667969 325.425781 C 241.273438 367.632812 170.992188 367.632812 125.597656 325.425781 Z M 125.597656 325.425781 " fill-opacity="1" fill-rule="evenodd"/><path fill="#ffffff" d="M 399.558594 223.3125 C 414.265625 231.980469 424.8125 246.808594 427.773438 264.28125 C 431.863281 288.425781 420.605469 312.589844 399.488281 324.992188 C 378.371094 337.390625 351.785156 335.449219 332.691406 320.117188 C 329.175781 329.175781 320.933594 335.542969 311.28125 336.65625 C 301.628906 337.769531 292.152344 333.445312 286.667969 325.425781 C 241.273438 367.632812 170.992188 367.632812 125.597656 325.425781 C 175.800781 357.378906 241.046875 352.476562 285.917969 313.390625 C 291.015625 321.144531 299.851562 325.605469 309.117188 325.109375 C 318.382812 324.613281 326.691406 319.238281 330.933594 310.984375 C 355.207031 328.152344 388.683594 323.242188 407.007812 299.832031 C 425.328125 276.421875 422.050781 242.75 399.558594 223.3125 Z M 399.558594 223.3125 " fill-opacity="1" fill-rule="evenodd"/><path fill="#ffffff" d="M 100.347656 151.875 C 78.25 168.113281 66.152344 194.648438 68.386719 221.980469 C 61.859375 208.578125 61.660156 192.960938 67.84375 179.394531 C 74.027344 165.832031 85.949219 155.738281 100.347656 151.875 Z M 100.347656 151.875 " fill-opacity="1" fill-rule="evenodd"/><path fill="#ffffff" d="M 281.792969 168.714844 C 275.4375 144.0625 257.109375 124.265625 233.023438 116.027344 C 208.9375 107.792969 182.324219 112.222656 162.203125 127.820312 C 179.691406 105.246094 209.597656 96.285156 236.613281 105.527344 C 263.632812 114.765625 281.789062 140.160156 281.792969 168.714844 Z M 281.792969 168.714844 " fill-opacity="1" fill-rule="evenodd"/><path fill="#ffffff" d="M 85.570312 303.421875 C 98.855469 309.398438 113.273438 312.445312 127.839844 312.359375 C 113.644531 321.25 94.957031 317.300781 85.570312 303.421875 Z M 85.570312 303.421875 " fill-opacity="1" fill-rule="evenodd"/><path fill="#ffffff" d="M 335.101562 219.09375 C 342.554688 230.601562 344.519531 244.828125 340.460938 257.925781 C 336.40625 271.023438 326.75 281.644531 314.09375 286.929688 C 329.484375 285.347656 342.441406 274.730469 347.015625 259.953125 C 351.589844 245.175781 346.902344 229.097656 335.101562 219.09375 Z M 335.101562 219.09375 " fill-opacity="1" fill-rule="evenodd"/></svg>