<svg xmlns="http://www.w3.org/2000/svg" xmlns:xlink="http://www.w3.org/1999/xlink" width="600" zoomAndPan="magnify" viewBox="0 0 450 449.999984" height="600" preserveAspectRatio="xMidYMid meet" version="1.0"><path fill="#000000" d="M 402.144531 171.261719 C 403 174.265625 403.144531 177.265625 402.429688 180.269531 C 402.429688 180.414062 402.289062 180.414062 402.289062 180.414062 C 402.144531 180.414062 402.144531 180.414062 402 180.269531 L 401.574219 178.839844 L 401.144531 181.84375 C 401.144531 181.984375 401 181.984375 400.859375 181.984375 C 400.859375 181.984375 400.714844 181.984375 400.714844 181.84375 L 398.570312 173.550781 C 398.429688 173.40625 398.429688 173.261719 398.285156 173.261719 L 398.285156 173.121094 C 398.144531 173.261719 398.144531 173.261719 398.144531 173.261719 C 398.144531 173.261719 398.144531 173.40625 398.144531 173.40625 C 398.285156 174.835938 398.429688 175.695312 398.429688 175.980469 C 399.144531 178.695312 400 182.984375 398.285156 185.558594 C 398.144531 185.84375 398.144531 186.132812 398 186.273438 C 397.714844 188.5625 397.429688 190.421875 396.855469 191.851562 C 396.714844 192.136719 396.570312 192.136719 396.285156 192.28125 C 396.140625 192.28125 396 192.421875 396 192.566406 C 395.570312 193.996094 395.285156 194.851562 395.140625 195.140625 C 395 195.140625 395 195.140625 395 195.140625 C 395.140625 194.996094 394.570312 193.566406 393.710938 190.851562 C 393.710938 190.851562 393.570312 190.707031 393.570312 190.707031 C 393.570312 190.707031 393.425781 190.707031 393.425781 190.707031 C 393.425781 190.851562 393.285156 190.851562 393.285156 190.992188 C 393.710938 193.421875 393.570312 195.996094 392.710938 198.570312 C 392.710938 198.570312 392.710938 198.714844 392.570312 198.714844 C 392.570312 198.714844 392.425781 198.714844 392.425781 198.714844 C 392.425781 198.570312 392.425781 198.570312 392.425781 198.570312 C 392.140625 196.996094 392.140625 195.140625 391.570312 193.566406 C 391.425781 193.566406 391.425781 193.566406 391.425781 193.566406 C 391.425781 196.855469 391.425781 199.859375 389.710938 202.574219 C 389.710938 202.71875 389.566406 202.71875 389.425781 202.71875 C 389.425781 202.71875 389.28125 202.574219 389.28125 202.429688 L 388.710938 199.285156 C 388.710938 199.285156 388.710938 199.285156 388.566406 199.285156 L 387.996094 203.289062 C 387.996094 203.574219 387.851562 203.71875 387.566406 203.859375 L 387.425781 203.859375 C 387.425781 204.003906 387.28125 204.003906 387.28125 204.003906 C 387.136719 204.003906 386.996094 203.859375 386.996094 203.71875 C 386.996094 203.71875 386.996094 203.71875 386.996094 203.574219 C 387.136719 203.003906 387.136719 202.71875 387.136719 202.429688 C 387.136719 202.429688 386.996094 202.429688 386.996094 202.429688 C 386.851562 202.429688 386.851562 202.429688 386.851562 202.429688 C 386.421875 203.003906 385.851562 204.289062 384.851562 206.148438 C 384.707031 206.433594 384.28125 207.007812 383.28125 207.863281 C 383.136719 208.007812 382.992188 208.152344 382.992188 208.292969 L 382.566406 209.152344 C 382.566406 209.292969 382.421875 209.4375 382.421875 209.4375 C 381.277344 210.722656 380.5625 211.4375 380.5625 211.726562 C 375.703125 221.160156 370.703125 230.597656 363.269531 238.320312 C 355.980469 245.753906 347.40625 251.332031 337.6875 255.191406 C 329.972656 258.195312 322.539062 260.050781 315.25 260.910156 C 308.105469 261.769531 302.246094 262.625 297.386719 263.339844 C 297.101562 263.339844 296.957031 263.339844 296.816406 263.484375 C 294.386719 266.914062 291.382812 269.347656 287.667969 271.632812 C 287.667969 271.632812 287.527344 271.777344 287.667969 271.921875 C 288.8125 274.921875 289.667969 277.925781 290.242188 281.355469 C 291.527344 288.648438 292.527344 294.226562 293.242188 297.941406 C 294.957031 307.523438 297.816406 316.816406 301.53125 325.824219 C 302.816406 328.96875 304.675781 333.117188 306.390625 335.546875 C 308.105469 337.976562 309.25 339.835938 309.964844 340.980469 C 311.964844 344.269531 312.394531 349.128906 313.25 353.5625 C 313.820312 356.277344 313.820312 357.996094 313.820312 360.996094 C 313.820312 361.28125 313.820312 361.710938 313.964844 362.140625 C 314.25 363.429688 314.824219 365.285156 315.679688 367.859375 C 318.679688 377.152344 321.96875 385.304688 326.96875 393.167969 C 328.542969 395.742188 331.402344 399.316406 332.6875 400.890625 C 335.257812 404.035156 336.402344 406.609375 337.261719 410.613281 C 337.261719 410.898438 337.402344 411.039062 337.546875 411.328125 C 337.976562 411.753906 338.402344 412.183594 338.976562 412.613281 C 341.40625 414.1875 342.835938 415.1875 343.40625 415.617188 C 343.691406 415.757812 343.976562 415.902344 344.40625 416.042969 C 345.40625 416.332031 346.265625 416.617188 346.980469 417.1875 C 347.121094 417.332031 347.40625 417.472656 347.550781 417.472656 C 348.121094 417.332031 348.550781 417.332031 349.121094 417.1875 C 352.980469 416.757812 353.695312 420.761719 354.265625 423.910156 C 354.410156 425.050781 354.410156 425.910156 354.125 426.625 C 354.125 426.769531 353.980469 426.910156 353.839844 427.054688 C 352.839844 427.484375 351.695312 427.625 350.550781 427.339844 C 350.550781 427.339844 350.410156 427.339844 350.410156 427.339844 C 350.265625 427.339844 350.121094 427.484375 350.121094 427.625 L 349.835938 428.054688 C 349.695312 428.199219 349.550781 428.339844 349.410156 428.339844 C 348.40625 428.914062 347.40625 429.054688 346.550781 429.199219 C 340.691406 429.769531 334.6875 429.628906 328.828125 428.769531 C 324.828125 428.199219 322.253906 425.910156 324.96875 421.765625 C 324.96875 421.621094 325.113281 421.476562 325.113281 421.476562 C 325.398438 419.90625 325.253906 418.617188 324.683594 417.617188 C 324.539062 417.472656 324.253906 417.332031 324.113281 417.1875 C 321.539062 416.1875 319.824219 414.1875 318.96875 411.328125 C 317.964844 408.179688 317.253906 404.320312 316.394531 401.175781 C 312.964844 390.164062 308.390625 379.585938 302.390625 369.289062 C 301.246094 367.429688 300.101562 365.859375 299.101562 364.714844 C 298.101562 363.570312 296.386719 361.996094 295.242188 360.425781 C 292.671875 356.992188 290.8125 352.988281 289.8125 348.558594 C 287.8125 340.40625 285.097656 332.6875 281.808594 325.25 C 276.234375 313.242188 269.660156 301.660156 261.945312 290.507812 C 261.371094 289.507812 260.515625 288.363281 259.371094 287.074219 C 259.371094 286.933594 259.371094 286.933594 259.226562 286.933594 C 259.085938 286.933594 259.085938 286.933594 259.085938 287.074219 C 253.082031 295.082031 247.652344 302.804688 242.9375 310.238281 C 241.078125 313.242188 238.648438 317.386719 235.789062 323.105469 C 233.074219 328.113281 230.929688 333.117188 229.359375 338.40625 C 228.214844 341.835938 228.214844 345.699219 227.070312 348.988281 C 225.644531 353.132812 223.355469 356.992188 220.355469 360.566406 C 220.070312 360.855469 219.355469 361.570312 218.070312 362.710938 C 217.78125 363 217.640625 363.140625 217.496094 363.429688 C 216.640625 365.144531 215.78125 367.144531 214.78125 369.433594 C 212.066406 376.582031 209.921875 384.304688 208.351562 392.308594 C 207.921875 395.3125 207.492188 398.171875 207.636719 401.460938 C 207.921875 406.179688 208.207031 409.039062 206.921875 412.328125 C 206.777344 412.46875 206.777344 412.757812 206.921875 412.898438 C 208.777344 415.328125 210.492188 417.761719 212.496094 418.617188 C 212.636719 418.617188 212.78125 418.617188 212.921875 418.617188 C 214.496094 418.761719 215.925781 418.761719 217.355469 418.761719 C 220.640625 418.90625 221.785156 423.480469 221.640625 425.910156 C 221.640625 426.339844 221.355469 426.769531 220.925781 426.910156 C 220.070312 427.199219 219.355469 427.199219 218.78125 427.199219 C 218.640625 427.199219 218.496094 427.199219 218.355469 427.339844 C 218.070312 428.054688 217.640625 428.339844 217.210938 428.484375 C 215.640625 429.054688 212.210938 429.199219 209.921875 429.054688 C 206.921875 428.914062 202.203125 428.769531 195.917969 428.628906 C 195.058594 428.628906 193.773438 428.484375 192.058594 428.054688 C 188.199219 427.339844 189.484375 422.765625 190.484375 420.476562 C 191.199219 418.617188 192.34375 416.757812 192.914062 414.613281 C 192.914062 414.472656 192.914062 414.328125 192.773438 414.1875 C 188.914062 409.039062 192.628906 401.746094 194.773438 396.742188 C 195.203125 395.457031 195.773438 393.882812 196.34375 392.023438 C 199.203125 383.160156 201.632812 374.582031 203.347656 366.429688 C 204.0625 363 204.777344 359.28125 204.921875 355.707031 C 205.0625 352.5625 205.207031 349.84375 205.347656 347.414062 C 205.777344 342.980469 207.0625 338.691406 209.351562 334.402344 C 215.640625 323.105469 220.640625 311.8125 224.355469 300.515625 C 226.5 294.367188 228.359375 288.21875 230.214844 282.070312 C 230.214844 281.785156 230.214844 281.5 230.074219 281.214844 C 229.789062 280.640625 229.644531 280.070312 229.929688 279.355469 C 229.929688 279.210938 229.789062 279.070312 229.644531 278.925781 C 223.070312 277.925781 219.355469 277.496094 215.210938 276.210938 C 214.925781 276.210938 214.78125 276.066406 214.636719 275.921875 L 213.78125 275.066406 C 213.636719 274.921875 213.496094 274.921875 213.210938 274.921875 C 197.347656 275.351562 181.769531 273.921875 166.476562 270.632812 C 151.039062 267.203125 135.75 261.195312 122.316406 252.472656 C 122.171875 252.472656 122.171875 252.617188 122.171875 252.617188 C 122.171875 256.765625 122.171875 261.054688 121.886719 265.34375 C 121.601562 269.488281 121.886719 272.636719 122.457031 276.925781 C 123.457031 285.359375 119.027344 293.9375 112.597656 299.230469 C 112.453125 299.515625 112.167969 299.800781 112.023438 300.085938 L 108.878906 305.949219 C 108.453125 306.664062 108.167969 307.378906 107.878906 308.238281 C 107.59375 309.238281 106.878906 312.527344 105.738281 318.246094 C 104.734375 324.109375 101.734375 330.542969 100.164062 336.691406 C 99.304688 340.121094 98.734375 343.839844 98.160156 347.699219 C 97.304688 353.132812 97.734375 358.421875 99.304688 363.570312 C 100.019531 366 99.589844 368.433594 100.449219 370.863281 C 104.59375 383.589844 111.308594 395.457031 119.171875 406.464844 C 119.597656 406.894531 120.027344 407.894531 120.601562 409.183594 C 120.601562 409.46875 120.886719 409.753906 121.027344 410.039062 C 123.171875 413.042969 126.03125 415.1875 129.605469 416.757812 C 129.746094 416.902344 130.03125 416.902344 130.175781 416.902344 C 131.03125 416.757812 131.746094 416.757812 132.320312 416.757812 C 136.890625 416.472656 139.894531 418.476562 141.179688 422.765625 C 141.894531 424.765625 136.320312 425.910156 135.035156 426.054688 C 129.605469 426.769531 124.03125 426.910156 118.171875 426.339844 C 116.457031 426.339844 114.882812 425.910156 113.453125 425.480469 C 112.167969 425.050781 112.023438 423.765625 112.167969 422.480469 C 112.453125 421.191406 112.023438 419.90625 112.023438 418.761719 C 112.023438 418.476562 111.882812 418.332031 111.738281 418.191406 C 109.882812 416.1875 108.453125 414.1875 107.59375 412.042969 C 101.878906 398.171875 94.875 385.019531 86.585938 372.722656 C 83.011719 367.289062 79.441406 362.855469 75.4375 358.136719 C 72.292969 354.277344 72.582031 351.417969 74.4375 346.984375 C 75.4375 344.699219 76.152344 342.695312 76.4375 340.980469 C 78.867188 331.113281 80.582031 320.960938 81.871094 310.667969 C 82.296875 306.949219 82.441406 303.089844 82.441406 299.371094 C 82.441406 299.371094 82.441406 299.371094 82.296875 299.230469 C 82.296875 299.230469 82.296875 299.230469 82.15625 299.230469 L 77.296875 302.804688 C 76.867188 303.234375 76.4375 303.660156 76.152344 304.089844 C 74.152344 306.808594 71.152344 309.09375 67.578125 308.523438 C 67.433594 308.523438 67.292969 308.667969 67.148438 308.667969 C 56.859375 319.960938 47.710938 330.113281 39.851562 339.265625 C 36.992188 342.410156 34.992188 346.128906 33.851562 350.417969 C 33.707031 350.703125 33.5625 350.988281 33.421875 351.273438 C 31.421875 354.847656 28.703125 358.28125 26.988281 362.570312 C 25.703125 365.574219 24.558594 369.148438 23.417969 373.292969 C 20.988281 382.300781 19.273438 391.308594 18.273438 400.460938 C 17.984375 403.035156 17.699219 406.179688 17.699219 409.753906 C 17.699219 413.042969 18.414062 416.1875 19.703125 418.90625 C 19.988281 419.621094 20.703125 420.046875 21.417969 420.191406 L 23.417969 420.335938 C 23.558594 420.335938 23.847656 420.476562 24.132812 420.476562 C 26.417969 421.476562 29.132812 422.480469 30.992188 424.335938 C 32.277344 425.625 33.136719 428.199219 30.707031 428.914062 C 29.847656 429.199219 29.707031 429.34375 29.132812 429.769531 C 28.847656 429.914062 28.417969 430.058594 28.132812 430.199219 C 24.273438 430.773438 20.414062 430.484375 16.699219 430.058594 C 16.128906 429.914062 15.414062 429.914062 14.699219 429.914062 C 11.125 430.058594 0.550781 431.34375 2.121094 424.765625 C 2.695312 422.480469 4.125 421.335938 5.125 419.761719 C 5.980469 418.191406 5.265625 415.472656 4.695312 413.042969 C 4.265625 410.613281 4.265625 408.464844 5.265625 405.894531 C 7.554688 399.457031 9.410156 391.882812 10.839844 383.015625 C 12.125 374.152344 12.839844 366.289062 13.128906 359.425781 C 13.414062 352.703125 12.839844 344.699219 13.128906 338.121094 C 13.269531 334.402344 14.699219 332.257812 17.699219 329.542969 C 23.988281 323.964844 29.5625 317.386719 34.277344 310.238281 C 38.28125 304.234375 40.996094 299.945312 42.425781 297.371094 C 43.425781 295.65625 44.28125 293.367188 44.855469 290.507812 C 46.140625 284.929688 47 281.214844 47.570312 279.210938 C 48 278.066406 48.855469 275.207031 50.429688 270.917969 C 51.570312 267.628906 52 265.058594 52.859375 262.054688 C 54.144531 256.621094 55.429688 248.328125 56.859375 240.894531 C 58.003906 236.03125 59.289062 229.742188 61.003906 222.304688 C 61.148438 221.160156 61.574219 220.019531 62.003906 218.589844 C 62.003906 218.589844 62.003906 218.589844 62.003906 218.445312 C 62.003906 218.445312 62.003906 218.300781 61.863281 218.300781 C 61.863281 218.300781 61.71875 218.445312 61.71875 218.445312 C 61.71875 218.445312 61.71875 218.445312 61.71875 218.589844 C 59.859375 221.734375 57.71875 226.453125 56 230.742188 C 53.285156 237.746094 50.714844 244.183594 48.425781 250.042969 C 46.855469 253.90625 46.710938 259.195312 45.996094 262.625 C 45.28125 266.773438 43.996094 269.773438 41.851562 275.207031 C 41.136719 276.925781 40.28125 278.496094 39.421875 280.070312 C 39.421875 280.070312 39.28125 280.070312 39.28125 280.070312 C 39.28125 280.070312 39.28125 280.070312 39.28125 279.925781 L 40.710938 275.636719 C 40.710938 275.496094 40.710938 275.496094 40.566406 275.351562 C 40.566406 275.351562 40.425781 275.351562 40.425781 275.496094 C 39.28125 278.640625 37.707031 281.5 35.992188 283.929688 C 35.851562 283.929688 35.851562 283.929688 35.851562 283.929688 C 35.707031 283.929688 35.707031 283.929688 35.707031 283.789062 C 36.136719 281.929688 36.707031 280.5 36.707031 279.496094 C 36.707031 279.496094 36.566406 279.355469 36.566406 279.355469 C 36.566406 279.355469 36.566406 279.496094 36.566406 279.496094 L 33.136719 286.074219 C 32.992188 286.21875 32.992188 286.21875 32.847656 286.21875 C 32.707031 286.21875 32.5625 286.074219 32.5625 285.933594 L 33.421875 282.644531 C 33.421875 282.644531 33.277344 282.644531 33.277344 282.644531 L 28.277344 291.9375 C 28.132812 291.9375 28.132812 291.9375 28.132812 291.9375 C 28.132812 292.082031 27.992188 291.9375 27.992188 291.9375 C 27.992188 291.9375 27.992188 291.9375 27.992188 291.792969 C 28.703125 288.792969 29.707031 285.933594 31.277344 283.359375 C 31.277344 283.359375 31.421875 283.359375 31.421875 283.359375 C 31.421875 283.214844 31.277344 283.214844 31.277344 283.214844 C 31.132812 283.359375 31.132812 283.359375 31.132812 283.359375 C 31.132812 283.5 31.132812 283.5 31.132812 283.5 C 29.277344 285.789062 27.703125 287.933594 26.417969 289.792969 C 24.988281 291.792969 24.273438 293.9375 23.988281 296.082031 C 23.988281 296.226562 23.847656 296.371094 23.703125 296.371094 C 23.558594 296.371094 23.558594 296.226562 23.417969 296.226562 C 22.703125 294.367188 22.988281 292.222656 23.273438 290.078125 C 22.417969 291.652344 21.988281 293.511719 22.128906 295.367188 C 22.128906 295.511719 21.988281 295.65625 21.84375 295.65625 C 21.703125 295.65625 21.558594 295.65625 21.558594 295.511719 C 20.84375 294.367188 20.558594 292.9375 20.703125 291.367188 C 21.128906 289.21875 21.703125 287.21875 22.84375 285.359375 C 22.703125 285.359375 22.703125 285.359375 22.703125 285.359375 C 21.273438 287.21875 20.128906 288.933594 19.558594 290.652344 C 19.558594 290.652344 19.414062 290.792969 19.273438 290.792969 C 19.128906 290.792969 19.128906 290.652344 19.128906 290.507812 C 19.128906 287.789062 21.558594 283.929688 22.988281 282.214844 C 24.273438 280.785156 25.273438 279.496094 26.273438 278.496094 C 26.273438 278.355469 26.132812 278.355469 26.132812 278.355469 C 23.988281 279.925781 21.703125 281.355469 18.988281 282.5 C 18.84375 282.5 18.699219 282.359375 18.699219 282.214844 C 18.699219 282.214844 18.699219 282.070312 18.699219 282.070312 L 25.703125 275.066406 C 25.847656 275.066406 25.703125 274.921875 25.703125 274.921875 L 20.128906 277.496094 C 19.988281 277.496094 19.84375 277.496094 19.84375 277.351562 C 19.84375 277.210938 19.84375 277.066406 19.988281 277.066406 C 24.847656 273.636719 29.277344 269.917969 33.277344 265.628906 C 33.277344 265.484375 33.277344 265.484375 33.136719 265.484375 C 30.421875 267.628906 27.132812 269.203125 23.558594 270.632812 C 23.558594 270.632812 23.558594 270.632812 23.417969 270.632812 C 23.417969 270.632812 23.273438 270.488281 23.273438 270.488281 C 23.273438 270.347656 23.417969 270.347656 23.417969 270.347656 C 24.558594 269.488281 25.703125 268.488281 26.703125 267.488281 C 31.707031 262.769531 35.421875 259.195312 37.707031 256.621094 C 40.566406 253.617188 42.566406 249.757812 43.855469 245.183594 C 45.28125 239.890625 47 234.316406 48.714844 228.453125 C 50.714844 221.304688 53.714844 213.441406 58.289062 207.578125 C 61.148438 203.859375 64.71875 200.574219 69.007812 197.710938 C 73.007812 194.996094 76.4375 192.851562 79.867188 189.707031 C 81.871094 187.988281 84.011719 185.84375 86.585938 183.558594 C 89.300781 180.984375 92.875 178.410156 96.445312 177.125 C 96.589844 177.125 96.875 176.980469 97.160156 176.980469 C 100.019531 176.550781 101.59375 176.265625 102.019531 176.121094 C 106.023438 174.121094 110.308594 171.976562 114.742188 169.402344 C 117.597656 167.828125 120.027344 165.828125 123.03125 163.828125 C 123.316406 163.539062 123.601562 163.253906 123.742188 162.96875 C 124.171875 162.109375 124.601562 161.253906 124.886719 160.394531 C 126.171875 157.105469 128.03125 152.53125 130.460938 146.8125 C 132.460938 142.234375 134.75 138.234375 137.605469 134.800781 C 141.324219 130.367188 145.894531 128.082031 151.613281 128.222656 C 153.898438 128.222656 155.328125 128.652344 157.902344 129.226562 C 157.902344 129.226562 158.042969 129.226562 158.042969 129.226562 C 158.1875 129.226562 158.328125 129.082031 158.328125 128.9375 C 158.617188 125.652344 159.332031 122.363281 160.472656 119.214844 C 160.472656 119.214844 160.472656 119.074219 160.472656 119.074219 C 160.472656 118.929688 160.332031 118.789062 160.1875 118.644531 C 159.1875 118.359375 158.472656 117.929688 157.757812 117.359375 C 155.898438 115.785156 156.902344 114.496094 158.472656 113.066406 C 159.757812 111.925781 161.046875 110.351562 161.472656 108.777344 C 161.617188 108.492188 161.617188 108.207031 161.472656 108.0625 C 159.902344 103.917969 159.472656 100.34375 159.1875 95.480469 C 158.757812 89.476562 158.757812 84.042969 158.902344 79.324219 C 159.042969 72.605469 160.757812 64.597656 166.191406 60.453125 C 168.476562 58.878906 169.761719 57.878906 170.046875 57.449219 C 170.191406 57.304688 170.191406 57.304688 170.191406 57.164062 C 170.191406 57.019531 170.191406 57.019531 170.046875 56.875 C 169.621094 56.304688 169.621094 55.734375 169.761719 55.304688 C 170.191406 54.015625 170.90625 52.585938 171.765625 51.015625 C 172.050781 50.726562 172.476562 50.441406 173.050781 50.441406 L 175.195312 50.871094 C 175.335938 50.871094 175.480469 50.726562 175.621094 50.585938 L 176.335938 48.726562 C 176.335938 48.582031 176.335938 48.441406 176.195312 48.296875 C 175.910156 48.15625 175.621094 47.867188 175.480469 47.441406 C 174.480469 45.4375 173.765625 43.152344 173.335938 40.433594 C 173.335938 39.863281 173.335938 39.289062 173.480469 38.859375 C 173.480469 38.71875 173.480469 38.433594 173.335938 38.289062 C 172.765625 37.574219 172.621094 36.429688 172.621094 35.144531 C 172.621094 35 172.476562 34.859375 172.335938 34.859375 C 172.335938 34.859375 172.191406 34.859375 172.191406 35 L 171.765625 35.285156 C 171.621094 35.429688 171.476562 35.429688 171.476562 35.429688 C 171.191406 35.429688 171.050781 35.144531 171.050781 35 C 171.050781 34.859375 171.050781 34.859375 171.050781 34.859375 C 171.050781 34.429688 171.335938 33.855469 171.765625 33.140625 C 171.765625 33 171.765625 33 171.765625 33 C 171.765625 32.855469 171.765625 32.855469 171.621094 32.855469 C 171.621094 32.855469 171.476562 32.855469 171.476562 32.855469 L 171.050781 33.140625 C 171.050781 33.285156 170.90625 33.285156 170.90625 33.285156 C 170.621094 33.285156 170.476562 33.140625 170.476562 32.855469 C 170.476562 32.855469 170.476562 32.714844 170.621094 32.714844 C 171.050781 32.140625 171.621094 31.570312 172.335938 31.28125 C 172.621094 31.140625 172.765625 30.996094 172.765625 30.855469 C 173.050781 29.425781 173.621094 27.851562 174.480469 26.136719 C 178.050781 19.414062 193.488281 18.84375 197.632812 25.136719 C 197.773438 25.277344 197.917969 25.277344 198.058594 25.277344 C 199.347656 25.136719 200.488281 25.136719 201.492188 25.421875 C 201.632812 25.421875 201.632812 25.5625 201.777344 25.5625 L 203.777344 27.28125 C 203.917969 27.421875 204.0625 27.566406 204.0625 27.851562 C 204.0625 27.996094 203.917969 28.136719 203.777344 28.28125 L 203.632812 28.566406 C 203.632812 28.566406 203.492188 28.710938 203.347656 28.710938 C 203.207031 28.710938 203.0625 28.566406 203.0625 28.421875 C 202.777344 28.136719 202.203125 27.851562 201.492188 27.851562 C 201.347656 27.851562 201.203125 27.996094 201.203125 27.996094 C 201.203125 28.136719 201.347656 28.136719 201.347656 28.136719 C 201.347656 28.136719 201.632812 28.28125 202.347656 28.710938 C 202.492188 28.710938 202.492188 28.851562 202.632812 28.851562 C 202.777344 29.136719 202.777344 29.425781 202.492188 29.566406 C 202.347656 29.710938 202.347656 29.710938 202.203125 29.710938 C 201.203125 29.996094 200.0625 30.425781 199.0625 31.28125 C 198.917969 31.425781 198.917969 31.570312 198.917969 31.710938 C 198.632812 33.285156 198.917969 34.714844 199.632812 36 C 199.632812 36.144531 199.632812 36.289062 199.632812 36.574219 C 199.632812 37.289062 199.488281 38.003906 199.0625 38.574219 C 198.917969 38.859375 198.917969 39.148438 199.0625 39.433594 C 199.632812 40.578125 200.347656 41.863281 201.492188 43.4375 C 202.777344 45.296875 201.203125 46.152344 199.488281 46.152344 C 199.347656 46.152344 199.347656 46.296875 199.347656 46.296875 C 199.488281 47.582031 199.488281 48.296875 199.0625 48.726562 C 198.917969 48.871094 198.917969 49.15625 198.917969 49.296875 C 199.203125 50.15625 198.917969 50.726562 198.347656 51.445312 C 198.058594 51.585938 198.058594 51.730469 198.058594 52.015625 C 197.917969 53.445312 198.058594 55.019531 196.488281 55.734375 C 195.058594 56.304688 192.199219 55.304688 190.058594 54.730469 C 189.769531 54.730469 189.484375 54.875 189.34375 55.160156 L 188.484375 57.304688 C 188.484375 57.304688 188.484375 57.304688 188.484375 57.449219 C 188.484375 57.589844 188.484375 57.589844 188.628906 57.734375 C 189.914062 58.449219 192.488281 59.878906 193.488281 61.453125 C 193.914062 62.023438 193.914062 62.738281 193.773438 63.3125 L 192.773438 65.882812 C 192.488281 66.457031 192.34375 67.171875 192.628906 67.886719 C 193.34375 70.175781 193.914062 72.320312 194.34375 74.175781 C 195.203125 77.324219 195.628906 81.183594 195.628906 85.902344 C 195.628906 86.902344 195.488281 91.335938 195.203125 98.914062 C 195.203125 99.484375 195.34375 99.914062 195.488281 100.484375 C 196.34375 103.34375 196.773438 106.492188 196.488281 109.636719 C 196.488281 109.921875 196.773438 110.207031 197.058594 110.207031 C 198.917969 110.207031 201.203125 111.351562 202.777344 112.351562 C 203.207031 112.496094 203.492188 112.496094 203.777344 112.640625 C 207.921875 113.496094 212.066406 114.070312 216.210938 114.496094 C 216.496094 114.496094 216.925781 114.496094 217.210938 114.496094 C 218.355469 114.210938 219.925781 113.925781 221.785156 113.355469 C 223.214844 113.066406 225.070312 112.78125 227.359375 112.78125 C 227.5 112.78125 227.644531 112.78125 227.929688 112.925781 L 231.359375 114.496094 C 231.789062 114.640625 232.21875 115.070312 232.359375 115.640625 C 232.789062 117.5 232.933594 119.359375 232.644531 121.074219 C 232.503906 121.21875 232.503906 121.359375 232.644531 121.648438 C 233.933594 125.078125 234.933594 128.652344 235.648438 132.226562 C 236.648438 137.519531 237.503906 142.523438 238.078125 146.953125 C 238.078125 147.097656 238.21875 147.242188 238.21875 147.382812 C 238.933594 147.957031 239.363281 148.382812 239.648438 148.527344 C 244.507812 151.671875 249.9375 154.246094 255.796875 156.390625 C 259.65625 157.820312 265.230469 159.394531 269.234375 161.539062 C 274.234375 164.253906 278.378906 167.828125 281.523438 172.40625 C 284.523438 176.695312 287.8125 182.414062 291.8125 187.273438 C 294.671875 190.5625 297.957031 193.136719 301.816406 194.851562 C 303.105469 195.425781 304.246094 196.140625 305.105469 197.285156 C 305.246094 197.425781 305.53125 197.570312 305.675781 197.570312 C 306.960938 197.425781 307.535156 198 307.535156 199.285156 C 307.535156 199.429688 307.675781 199.429688 307.675781 199.429688 C 307.820312 199.429688 307.960938 199.429688 307.960938 199.429688 C 308.675781 198 309.390625 197.710938 310.25 198.429688 C 310.679688 199 311.105469 199.429688 311.25 199.859375 C 311.25 200 311.394531 200 311.394531 200 C 311.535156 200 311.535156 200 311.679688 200 L 311.820312 199.859375 C 311.964844 199.714844 312.25 199.570312 312.394531 199.714844 C 323.828125 201.429688 334.257812 197.710938 342.121094 189.421875 C 344.261719 187.132812 345.40625 185.988281 345.40625 185.988281 C 345.976562 185.417969 346.550781 184.84375 346.980469 184.128906 C 347.121094 183.988281 347.121094 183.84375 347.121094 183.699219 C 347.121094 183.273438 347.40625 182.84375 347.980469 182.558594 C 348.121094 182.558594 348.265625 182.414062 348.265625 182.269531 C 348.265625 181.984375 347.980469 181.699219 347.835938 181.699219 L 345.691406 181.699219 C 345.550781 181.699219 345.550781 181.699219 345.550781 181.554688 C 345.550781 181.554688 345.550781 181.414062 345.550781 181.414062 L 349.410156 178.410156 C 349.410156 178.265625 349.410156 178.265625 349.410156 178.125 C 349.410156 177.980469 349.410156 177.980469 349.265625 177.980469 C 349.265625 177.980469 349.121094 177.980469 349.121094 177.980469 L 345.40625 178.554688 C 345.265625 178.554688 345.265625 178.554688 345.265625 178.554688 C 345.265625 178.410156 345.265625 178.410156 345.265625 178.410156 C 345.976562 177.550781 347.550781 176.980469 349.121094 176.410156 C 349.121094 176.265625 349.121094 176.265625 349.121094 176.265625 L 345.40625 176.265625 C 345.121094 176.265625 344.976562 176.121094 344.976562 175.835938 C 344.976562 175.835938 344.976562 175.695312 345.121094 175.550781 C 345.265625 175.40625 345.40625 175.265625 345.691406 175.121094 C 347.550781 174.40625 349.121094 173.550781 350.410156 172.546875 C 350.410156 172.546875 350.410156 172.546875 350.410156 172.40625 L 350.265625 172.40625 L 347.265625 173.40625 C 347.121094 173.40625 346.980469 173.261719 346.980469 173.121094 C 346.980469 173.121094 346.980469 172.976562 346.980469 172.976562 L 352.125 168.972656 C 352.125 168.832031 352.125 168.832031 352.125 168.832031 C 352.125 168.832031 352.125 168.832031 351.980469 168.832031 C 349.695312 169.117188 347.550781 169.832031 345.691406 170.832031 C 345.550781 170.832031 345.550781 170.832031 345.550781 170.832031 C 345.40625 170.832031 345.40625 170.691406 345.40625 170.691406 C 345.40625 170.691406 345.40625 170.546875 345.40625 170.546875 C 347.40625 168.257812 349.695312 166.542969 352.410156 165.113281 C 352.839844 164.96875 353.125 164.683594 353.410156 164.542969 C 353.410156 164.398438 353.410156 164.398438 353.410156 164.398438 C 353.410156 164.253906 353.410156 164.253906 353.265625 164.253906 L 347.835938 165.972656 C 347.835938 165.972656 347.691406 165.972656 347.691406 165.828125 C 347.835938 165.683594 347.835938 165.542969 347.835938 165.398438 C 349.550781 163.539062 351.695312 161.96875 354.125 160.964844 C 354.265625 160.964844 354.265625 160.964844 354.265625 160.964844 C 354.265625 160.964844 354.265625 160.964844 354.265625 160.824219 C 354.265625 160.679688 354.125 160.679688 354.125 160.679688 L 349.550781 162.398438 C 349.410156 162.398438 349.410156 162.253906 349.410156 162.253906 C 349.410156 162.109375 349.410156 162.109375 349.410156 162.109375 C 350.980469 160.539062 352.839844 158.679688 354.839844 157.820312 C 355.269531 157.535156 355.839844 157.390625 356.554688 157.105469 C 356.695312 157.105469 356.695312 156.964844 356.695312 156.820312 L 356.695312 156.675781 C 356.554688 156.535156 356.554688 156.535156 356.410156 156.535156 L 352.125 157.679688 C 351.980469 157.679688 351.980469 157.535156 351.980469 157.535156 L 351.835938 157.390625 C 351.835938 157.390625 351.835938 157.25 351.980469 157.25 C 353.410156 156.390625 354.980469 155.246094 356.554688 153.960938 C 357.125 153.390625 357.699219 152.675781 358.410156 151.816406 C 358.410156 151.671875 358.410156 151.671875 358.410156 151.671875 C 358.410156 151.53125 358.269531 151.53125 358.269531 151.53125 C 358.125 151.53125 358.125 151.53125 358.125 151.53125 C 357.410156 152.101562 357.125 152.386719 356.984375 152.386719 C 356.984375 152.386719 356.839844 152.386719 356.839844 152.386719 C 356.269531 152.386719 355.839844 151.960938 355.839844 151.53125 C 355.269531 143.808594 360.984375 136.375 366.84375 132.085938 C 367.128906 131.796875 367.414062 131.511719 367.703125 131.226562 L 369.84375 128.367188 C 369.84375 128.222656 369.84375 128.082031 369.84375 127.9375 C 368.988281 126.652344 368.558594 125.792969 368.417969 125.222656 C 368.128906 123.21875 367.84375 121.074219 367.703125 118.789062 C 367.703125 118.5 367.84375 118.074219 368.273438 117.929688 L 371.417969 116.929688 C 371.703125 116.785156 371.847656 116.785156 372.132812 116.929688 L 376.5625 118.789062 C 376.707031 118.789062 376.847656 118.789062 376.992188 118.789062 C 383.707031 114.925781 391.996094 116.785156 398.285156 120.789062 C 398.570312 120.933594 399.429688 121.503906 400.859375 122.503906 C 401.144531 122.789062 401.574219 122.933594 401.859375 122.933594 C 404.859375 123.363281 407.433594 123.792969 409.863281 125.507812 C 409.863281 125.652344 410.003906 125.652344 410.148438 125.652344 C 410.289062 125.652344 410.289062 125.652344 410.289062 125.652344 C 411.289062 125.507812 412.148438 125.363281 412.71875 125.222656 C 414.722656 124.648438 417.007812 124.648438 419.867188 124.9375 C 425.296875 125.507812 430.726562 126.652344 436.160156 128.367188 C 439.300781 129.511719 442.160156 132.226562 444.160156 134.515625 C 445.160156 135.660156 444.875 137.089844 444.734375 138.519531 C 444.734375 138.660156 444.875 138.949219 445.019531 139.089844 C 446.589844 140.949219 448.164062 143.238281 448.734375 145.8125 C 449.449219 148.957031 448.734375 152.246094 444.875 151.960938 C 444.875 151.960938 444.734375 151.960938 444.734375 151.960938 C 444.589844 151.960938 444.449219 151.960938 444.449219 152.101562 C 443.445312 154.390625 441.730469 155.535156 439.300781 155.675781 C 435.871094 156.105469 432.726562 155.390625 429.585938 153.960938 C 429.441406 153.816406 429.15625 153.816406 429.011719 153.816406 C 428.871094 153.816406 428.871094 153.816406 428.871094 153.816406 C 427.011719 153.960938 425.441406 154.246094 423.722656 154.960938 C 420.007812 156.675781 416.4375 158.25 413.007812 159.824219 C 412.578125 160.109375 412.292969 160.394531 412.148438 160.824219 C 411.863281 162.109375 411.289062 163.828125 410.578125 165.972656 C 409.863281 167.972656 408.859375 169.402344 407.859375 171.40625 C 407.859375 171.40625 407.71875 171.546875 407.71875 171.546875 C 407.574219 171.546875 407.574219 171.40625 407.574219 171.40625 L 406.289062 164.113281 L 405.859375 164.253906 C 405.859375 164.398438 406.003906 167.113281 406.289062 172.691406 C 406.433594 173.835938 406.289062 175.121094 405.859375 176.265625 C 405.859375 176.410156 405.71875 176.410156 405.574219 176.410156 C 405.574219 176.410156 405.429688 176.265625 405.429688 176.265625 C 405.429688 176.265625 405.429688 176.121094 405.429688 176.121094 C 405.429688 174.265625 405.144531 171.976562 404.429688 169.402344 C 404.289062 169.402344 404.289062 169.402344 404.289062 169.546875 C 404.714844 172.691406 405.429688 175.695312 404.003906 179.125 C 404.003906 179.125 403.859375 179.125 403.859375 179.125 C 403.714844 179.125 403.714844 179.125 403.714844 178.980469 C 403.574219 176.410156 403 173.835938 402.144531 171.261719 Z M 236.503906 145.8125 C 235.648438 139.949219 234.789062 134.945312 233.789062 130.65625 C 232.933594 127.082031 232.359375 124.9375 231.929688 124.21875 C 231.644531 123.648438 231.21875 123.363281 230.789062 123.21875 C 230.789062 123.21875 230.644531 123.21875 230.644531 123.21875 C 230.503906 123.21875 230.503906 123.363281 230.503906 123.503906 C 230.503906 124.078125 230.359375 124.507812 229.929688 124.792969 C 229.789062 124.9375 229.789062 124.9375 229.644531 124.9375 C 229.5 124.9375 229.5 124.9375 229.359375 124.792969 L 229.214844 124.648438 C 229.074219 124.648438 229.074219 124.507812 228.929688 124.507812 C 228.789062 124.507812 228.5 124.792969 228.5 124.9375 L 227.214844 133.945312 C 227.214844 133.945312 227.214844 133.945312 227.214844 134.085938 C 227.214844 134.230469 227.359375 134.515625 227.5 134.660156 C 229.5 136.945312 231.21875 139.664062 232.503906 142.953125 C 232.503906 143.09375 232.644531 143.378906 232.933594 143.523438 L 236.074219 145.953125 C 236.074219 146.097656 236.21875 146.097656 236.21875 146.097656 C 236.363281 146.097656 236.503906 145.953125 236.503906 145.8125 Z M 217.066406 124.363281 C 217.066406 124.363281 217.066406 124.363281 216.925781 124.363281 C 216.925781 124.363281 216.925781 124.507812 216.925781 124.507812 L 222.355469 130.367188 C 222.355469 130.367188 222.5 130.367188 222.5 130.367188 C 222.5 130.367188 222.640625 130.367188 222.640625 130.226562 L 223.785156 125.363281 C 223.785156 125.222656 223.785156 125.078125 223.640625 125.078125 C 221.355469 125.363281 219.210938 125.078125 217.066406 124.363281 Z M 357.125 148.957031 L 360.699219 141.664062 C 360.699219 141.664062 360.699219 141.664062 360.554688 141.664062 C 360.269531 141.378906 359.125 142.953125 358.269531 144.808594 L 358.125 145.097656 C 357.125 146.953125 356.695312 148.671875 356.984375 148.957031 Z M 408.574219 166.398438 C 408.574219 166.398438 408.433594 166.828125 408.433594 167.402344 C 408.289062 167.828125 408.433594 168.402344 408.433594 168.402344 C 408.574219 168.402344 408.574219 167.972656 408.71875 167.402344 C 408.71875 166.828125 408.71875 166.398438 408.574219 166.398438 Z M 408.574219 166.398438 " fill-opacity="1" fill-rule="evenodd"/></svg>