<svg xmlns="http://www.w3.org/2000/svg" xmlns:xlink="http://www.w3.org/1999/xlink" width="600" zoomAndPan="magnify" viewBox="0 0 450 449.999984" height="600" preserveAspectRatio="xMidYMid meet" version="1.0"><defs><clipPath id="a2ad5ba49c"><path d="M 12.65625 0 L 437.15625 0 L 437.15625 450 L 12.65625 450 Z M 12.65625 0 " clip-rule="nonzero"/></clipPath><clipPath id="b116d849c5"><path d="M 225 0 L 437.15625 0 L 437.15625 450 L 225 450 Z M 225 0 " clip-rule="nonzero"/></clipPath><clipPath id="56ee34ddc3"><path d="M 12.65625 56 L 437.15625 56 L 437.15625 203 L 12.65625 203 Z M 12.65625 56 " clip-rule="nonzero"/></clipPath><clipPath id="34806b5f72"><path d="M 225 56 L 437.15625 56 L 437.15625 203 L 225 203 Z M 225 56 " clip-rule="nonzero"/></clipPath></defs><g clip-path="url(#a2ad5ba49c)"><path fill="#0e0e11" d="M 225 0.164062 L 12.652344 93.910156 L 12.652344 379.941406 L 225 449.859375 L 437.347656 379.941406 L 437.347656 93.910156 Z M 225 0.164062 " fill-opacity="1" fill-rule="nonzero"/></g><g clip-path="url(#b116d849c5)"><path fill="#4e5264" d="M 225 0.164062 L 225 449.859375 L 437.347656 379.941406 L 437.347656 93.910156 Z M 225 0.164062 " fill-opacity="1" fill-rule="nonzero"/></g><g clip-path="url(#56ee34ddc3)"><path fill="#f1f7fb" d="M 437.347656 127.980469 L 437.347656 158.882812 L 225 106.496094 L 12.652344 158.882812 L 12.652344 127.980469 L 225 56.578125 Z M 399.042969 196.40625 L 433.824219 201.855469 L 437.339844 202.40625 L 437.339844 182.785156 L 399.042969 173.550781 Z M 50.957031 173.550781 L 12.660156 182.773438 L 12.660156 202.394531 L 16.171875 201.84375 L 50.957031 196.40625 Z M 253.792969 173.628906 L 253.792969 138.566406 L 225 131.632812 L 196.214844 138.566406 L 196.214844 173.640625 L 225 169.128906 Z M 149.203125 149.882812 L 91.628906 163.75 L 91.628906 190.019531 L 149.203125 180.996094 Z M 358.378906 163.75 L 300.804688 149.882812 L 300.804688 180.996094 L 358.378906 190.019531 Z M 172.285156 149.34375 L 159.902344 162.199219 L 172.207031 174.128906 L 184.589844 160.347656 Z M 70.910156 169.933594 L 60.664062 180.570312 L 70.847656 190.441406 L 81.09375 179.039062 Z M 265.410156 160.359375 L 277.796875 174.140625 L 290.101562 162.210938 L 277.71875 149.355469 Z M 368.921875 179.054688 L 379.167969 190.453125 L 389.347656 180.582031 L 379.101562 169.949219 Z M 368.921875 179.054688 " fill-opacity="1" fill-rule="nonzero"/></g><g clip-path="url(#34806b5f72)"><path fill="#ffffff" d="M 389.347656 180.582031 L 379.167969 190.453125 L 368.921875 179.050781 L 379.101562 169.945312 Z M 300.800781 149.890625 L 300.800781 181.007812 L 358.375 190.03125 L 358.375 163.761719 Z M 277.71875 149.355469 L 265.410156 160.359375 L 277.796875 174.140625 L 290.101562 162.210938 Z M 225 106.496094 L 437.347656 158.882812 L 437.347656 127.980469 L 225 56.578125 Z M 437.34375 182.785156 L 399.042969 173.550781 L 399.042969 196.394531 L 433.824219 201.84375 L 437.339844 202.394531 Z M 225 169.128906 L 253.789062 173.640625 L 253.789062 138.566406 L 225 131.632812 Z M 225 169.128906 " fill-opacity="1" fill-rule="nonzero"/></g></svg>