<svg xmlns="http://www.w3.org/2000/svg" xmlns:xlink="http://www.w3.org/1999/xlink" width="600" zoomAndPan="magnify" viewBox="0 0 450 449.999984" height="600" preserveAspectRatio="xMidYMid meet" version="1.0"><defs><clipPath id="1b3106f88f"><path d="M 214.628906 168.613281 L 383.378906 168.613281 L 383.378906 348.613281 L 214.628906 348.613281 Z M 214.628906 168.613281 " clip-rule="nonzero"/></clipPath><clipPath id="0a60ac97ea"><path d="M 214.628906 243.613281 L 214.628906 273.613281 C 214.628906 315.03125 248.207031 348.613281 289.628906 348.613281 L 308.378906 348.613281 C 349.800781 348.613281 383.378906 315.03125 383.378906 273.613281 L 383.378906 243.613281 C 383.378906 202.191406 349.800781 168.613281 308.378906 168.613281 L 289.628906 168.613281 C 248.207031 168.613281 214.628906 202.191406 214.628906 243.613281 Z M 214.628906 243.613281 " clip-rule="nonzero"/></clipPath><clipPath id="dadd1c3e94"><path d="M 136.875 221 L 271.125 221 L 271.125 363.460938 L 136.875 363.460938 Z M 136.875 221 " clip-rule="nonzero"/></clipPath><clipPath id="2d5fa47995"><path d="M 204 221 L 271.125 221 L 271.125 363.460938 L 204 363.460938 Z M 204 221 " clip-rule="nonzero"/></clipPath><clipPath id="09feee657a"><path d="M 136.875 238 L 271.125 238 L 271.125 286 L 136.875 286 Z M 136.875 238 " clip-rule="nonzero"/></clipPath><clipPath id="c797684a23"><path d="M 204 238 L 271.125 238 L 271.125 286 L 204 286 Z M 204 238 " clip-rule="nonzero"/></clipPath><clipPath id="4d6918c834"><path d="M 74 71 L 400 71 L 400 397 L 74 397 Z M 74 71 " clip-rule="nonzero"/></clipPath><clipPath id="a719679bff"><path d="M 8.621094 207.308594 L 240.132812 24.882812 L 441.128906 279.957031 L 209.613281 462.386719 Z M 8.621094 207.308594 " clip-rule="nonzero"/></clipPath><clipPath id="1f6960963a"><path d="M 8.621094 207.308594 L 240.132812 24.882812 L 441.128906 279.957031 L 209.613281 462.386719 Z M 8.621094 207.308594 " clip-rule="nonzero"/></clipPath></defs><g clip-path="url(#1b3106f88f)"><g clip-path="url(#0a60ac97ea)"><path fill="#f1f7fb" d="M 380.3125 324.746094 L 380.3125 321.085938 L 378.269531 321.085938 L 378.269531 320.339844 C 378.269531 315.589844 375.859375 311.523438 372.4375 309.832031 C 370.816406 309.03125 369.457031 307.609375 368.628906 305.746094 C 368.351562 305.117188 368.203125 304.730469 368.203125 304.730469 C 368.199219 304.742188 368.195312 304.75 368.195312 304.757812 C 367.40625 307.039062 365.886719 308.851562 363.972656 309.726562 C 362.1875 310.542969 360.664062 312 359.589844 313.867188 L 359.589844 303.675781 L 360.992188 301.816406 C 361.011719 301.800781 361.023438 301.78125 361.023438 301.753906 C 360.960938 301.058594 361.535156 300.613281 361.6875 300.507812 C 361.707031 300.496094 361.714844 300.488281 361.71875 300.488281 C 361.71875 300.488281 361.722656 300.484375 361.722656 300.484375 C 361.722656 300.484375 361.726562 300.480469 361.726562 300.480469 C 361.730469 300.476562 361.734375 300.476562 361.738281 300.472656 C 361.738281 300.46875 361.738281 300.46875 361.742188 300.46875 C 361.742188 300.464844 361.742188 300.460938 361.746094 300.457031 C 361.746094 300.457031 361.746094 300.457031 361.75 300.453125 C 361.75 300.453125 361.75 300.449219 361.75 300.445312 C 361.75 300.445312 361.753906 300.445312 361.753906 300.441406 C 361.753906 300.4375 361.753906 300.433594 361.753906 300.433594 C 361.753906 300.429688 361.753906 300.425781 361.753906 300.421875 L 361.753906 296.734375 C 361.753906 296.324219 361.453125 295.976562 361.046875 295.921875 L 359.019531 295.640625 L 359.019531 277.621094 C 359.019531 277.589844 359 277.566406 358.972656 277.554688 C 358.925781 277.53125 358.871094 277.511719 358.820312 277.492188 C 358.84375 276.28125 359.960938 275.8125 360.050781 275.777344 C 360.082031 275.769531 360.105469 275.75 360.109375 275.71875 C 360.253906 274.921875 361.328125 274.5625 361.335938 274.558594 C 361.34375 274.558594 361.347656 274.554688 361.351562 274.550781 C 361.355469 274.550781 361.355469 274.550781 361.359375 274.546875 C 361.367188 274.539062 361.375 274.53125 361.378906 274.523438 C 361.378906 274.523438 361.378906 274.519531 361.378906 274.519531 C 361.382812 274.511719 361.386719 274.503906 361.386719 274.492188 L 361.386719 270.441406 C 361.386719 270.410156 361.367188 270.382812 361.335938 270.375 C 360.3125 270.078125 359.277344 269.84375 358.238281 269.671875 C 358.265625 269.660156 358.289062 269.636719 358.289062 269.601562 L 358.289062 262.980469 C 358.289062 262.945312 358.265625 262.917969 358.234375 262.910156 L 357.871094 262.824219 L 357.871094 261.523438 L 357.863281 261.523438 L 359.320312 259.285156 C 359.335938 259.265625 359.335938 259.242188 359.328125 259.21875 C 359.320312 259.203125 359.304688 259.191406 359.289062 259.183594 C 359.292969 259.140625 359.292969 259.101562 359.292969 259.058594 C 359.292969 257.738281 358.320312 256.332031 356.8125 255.472656 C 356.078125 255.050781 355.480469 254.679688 354.929688 254.296875 L 354.855469 254.25 C 354.851562 253.898438 354.800781 253.597656 354.730469 253.492188 L 354.625 253.335938 C 354.488281 253.136719 354.347656 252.984375 354.207031 252.882812 L 354.160156 251.820312 C 354.734375 251.644531 355.148438 251.113281 355.148438 250.484375 C 355.148438 249.808594 354.671875 249.246094 354.039062 249.117188 L 353.980469 247.832031 C 354.453125 247.730469 354.808594 247.308594 354.808594 246.800781 C 354.808594 246.265625 354.40625 245.820312 353.886719 245.753906 L 353.753906 242.824219 L 353.621094 245.753906 C 353.101562 245.820312 352.699219 246.265625 352.699219 246.800781 C 352.699219 247.308594 353.054688 247.730469 353.527344 247.832031 L 353.46875 249.117188 C 352.835938 249.246094 352.359375 249.808594 352.359375 250.484375 C 352.359375 251.113281 352.773438 251.644531 353.347656 251.820312 L 353.300781 252.878906 C 353.15625 252.984375 353.019531 253.136719 352.882812 253.335938 L 352.777344 253.492188 C 352.703125 253.597656 352.65625 253.894531 352.652344 254.238281 C 352.070312 254.621094 351.433594 255.007812 350.6875 255.429688 C 349.183594 256.277344 348.214844 257.703125 348.214844 259.058594 C 348.214844 259.101562 348.214844 259.140625 348.21875 259.183594 C 348.203125 259.1875 348.1875 259.203125 348.179688 259.21875 C 348.171875 259.242188 348.171875 259.265625 348.183594 259.285156 L 349.644531 261.523438 L 349.636719 261.523438 L 349.636719 262.824219 L 349.273438 262.910156 C 349.242188 262.917969 349.21875 262.945312 349.21875 262.980469 L 349.21875 269.601562 C 349.21875 269.632812 349.238281 269.660156 349.269531 269.667969 C 348.230469 269.84375 347.195312 270.078125 346.171875 270.371094 C 346.140625 270.382812 346.121094 270.410156 346.121094 270.441406 L 346.121094 274.488281 C 346.121094 274.492188 346.121094 274.492188 346.121094 274.492188 C 346.121094 274.503906 346.125 274.511719 346.128906 274.519531 C 346.128906 274.519531 346.128906 274.523438 346.128906 274.523438 C 346.132812 274.53125 346.140625 274.539062 346.148438 274.546875 C 346.152344 274.546875 346.152344 274.546875 346.152344 274.546875 C 346.160156 274.550781 346.164062 274.554688 346.171875 274.558594 C 346.183594 274.5625 347.253906 274.917969 347.398438 275.71875 C 347.402344 275.746094 347.425781 275.769531 347.457031 275.773438 C 347.527344 275.800781 348.664062 276.28125 348.6875 277.492188 C 348.636719 277.511719 348.585938 277.53125 348.535156 277.550781 C 348.507812 277.5625 348.488281 277.589844 348.488281 277.621094 L 348.488281 295.640625 L 346.460938 295.921875 C 346.058594 295.976562 345.753906 296.324219 345.753906 296.730469 L 345.753906 300.421875 C 345.753906 300.425781 345.753906 300.429688 345.753906 300.429688 C 345.753906 300.433594 345.753906 300.4375 345.753906 300.441406 C 345.753906 300.441406 345.757812 300.441406 345.757812 300.445312 C 345.757812 300.449219 345.757812 300.449219 345.757812 300.453125 C 345.761719 300.453125 345.761719 300.453125 345.761719 300.457031 C 345.765625 300.460938 345.765625 300.464844 345.769531 300.46875 C 345.773438 300.472656 345.777344 300.472656 345.777344 300.476562 C 345.78125 300.480469 345.78125 300.480469 345.785156 300.480469 C 345.785156 300.480469 345.785156 300.484375 345.785156 300.484375 C 345.792969 300.488281 346.554688 300.957031 346.488281 301.753906 C 346.484375 301.777344 346.496094 301.800781 346.515625 301.816406 L 347.921875 303.671875 L 347.921875 315.261719 L 344.4375 313.347656 L 344.4375 299.902344 L 339.007812 299.902344 L 339.007812 297.882812 C 339.007812 285.015625 331.101562 273.992188 319.875 269.414062 C 314.566406 267.246094 310.117188 263.390625 307.398438 258.339844 C 307.078125 257.738281 306.808594 257.222656 306.59375 256.804688 L 306.519531 250.480469 C 308.226562 250.203125 309.527344 248.726562 309.527344 246.941406 C 309.527344 245.128906 308.183594 243.632812 306.4375 243.390625 L 306.386719 238.953125 C 307.664062 238.738281 308.640625 237.632812 308.640625 236.292969 C 308.640625 234.933594 307.632812 233.8125 306.320312 233.625 L 306.277344 229.6875 C 306.953125 229.695312 307.640625 229.625 308.324219 229.445312 C 308.808594 229.324219 309.277344 229.152344 309.726562 228.941406 C 310.886719 228.394531 311.910156 227.558594 312.683594 226.519531 L 313.417969 225.53125 L 312.339844 226.140625 C 311.800781 226.464844 311.214844 226.710938 310.601562 226.867188 C 307.113281 227.765625 303.542969 225.660156 302.644531 222.171875 C 301.804688 218.914062 303.546875 215.578125 306.699219 214.414062 L 307.863281 213.984375 L 306.617188 213.90625 C 305.867188 213.882812 305.117188 213.964844 304.382812 214.15625 C 300.167969 215.242188 297.621094 219.554688 298.707031 223.769531 C 299.558594 227.070312 302.390625 229.339844 305.601562 229.652344 L 305.554688 233.625 C 304.246094 233.808594 303.238281 234.933594 303.238281 236.292969 C 303.238281 237.632812 304.214844 238.738281 305.492188 238.953125 L 305.441406 243.390625 C 303.695312 243.632812 302.347656 245.128906 302.347656 246.941406 C 302.347656 248.726562 303.652344 250.199219 305.355469 250.480469 L 305.277344 257.15625 C 302.554688 262.628906 297.886719 266.949219 292.132812 269.121094 C 291.960938 269.1875 291.792969 269.257812 291.621094 269.328125 L 291.621094 240.597656 L 293.28125 238.398438 C 293.304688 238.382812 293.320312 238.355469 293.316406 238.328125 C 293.246094 237.503906 293.925781 236.976562 294.101562 236.855469 C 294.125 236.835938 294.136719 236.828125 294.140625 236.828125 C 294.140625 236.828125 294.144531 236.828125 294.144531 236.828125 C 294.148438 236.824219 294.148438 236.820312 294.152344 236.820312 C 294.15625 236.816406 294.160156 236.8125 294.164062 236.808594 C 294.164062 236.808594 294.164062 236.808594 294.167969 236.804688 C 294.167969 236.800781 294.171875 236.796875 294.171875 236.792969 C 294.171875 236.792969 294.171875 236.792969 294.175781 236.792969 C 294.175781 236.792969 294.175781 236.789062 294.175781 236.789062 C 294.179688 236.785156 294.179688 236.785156 294.179688 236.78125 C 294.179688 236.777344 294.179688 236.777344 294.183594 236.777344 C 294.183594 236.777344 294.183594 236.773438 294.183594 236.773438 C 294.183594 236.769531 294.183594 236.765625 294.183594 236.761719 C 294.183594 236.757812 294.183594 236.757812 294.183594 236.753906 L 294.183594 232.386719 C 294.183594 231.90625 293.824219 231.492188 293.347656 231.425781 L 290.945312 231.09375 L 290.945312 209.777344 C 290.945312 209.742188 290.925781 209.710938 290.894531 209.699219 C 290.835938 209.675781 290.773438 209.648438 290.714844 209.625 C 290.742188 208.195312 292.058594 207.640625 292.167969 207.597656 C 292.203125 207.589844 292.234375 207.566406 292.238281 207.527344 C 292.40625 206.585938 293.679688 206.160156 293.691406 206.15625 C 293.695312 206.15625 293.703125 206.152344 293.707031 206.148438 C 293.710938 206.144531 293.714844 206.144531 293.714844 206.144531 C 293.714844 206.144531 293.714844 206.144531 293.71875 206.140625 C 293.726562 206.136719 293.734375 206.125 293.742188 206.113281 C 293.742188 206.113281 293.742188 206.113281 293.742188 206.109375 C 293.746094 206.101562 293.75 206.089844 293.75 206.078125 L 293.75 201.285156 C 293.75 201.25 293.726562 201.214844 293.6875 201.207031 C 292.480469 200.855469 291.253906 200.578125 290.023438 200.375 C 290.058594 200.363281 290.085938 200.332031 290.085938 200.292969 L 290.085938 192.460938 C 290.085938 192.421875 290.058594 192.386719 290.019531 192.378906 L 289.589844 192.277344 L 289.589844 190.738281 L 289.582031 190.738281 L 291.308594 188.09375 C 291.324219 188.066406 291.324219 188.039062 291.3125 188.011719 C 291.304688 187.992188 291.289062 187.976562 291.269531 187.96875 C 291.269531 187.921875 291.273438 187.871094 291.273438 187.820312 C 291.273438 186.261719 290.121094 184.597656 288.339844 183.578125 C 287.472656 183.082031 286.761719 182.640625 286.109375 182.191406 L 286.023438 182.132812 C 286.019531 181.71875 285.960938 181.359375 285.875 181.238281 L 285.75 181.054688 C 285.589844 180.816406 285.425781 180.636719 285.257812 180.515625 L 285.203125 179.257812 C 285.878906 179.050781 286.371094 178.421875 286.371094 177.679688 C 286.371094 176.882812 285.808594 176.214844 285.058594 176.0625 L 284.988281 174.542969 C 285.550781 174.417969 285.96875 173.921875 285.96875 173.324219 C 285.96875 172.6875 285.492188 172.164062 284.878906 172.085938 L 284.71875 168.617188 L 284.5625 172.085938 C 283.949219 172.164062 283.472656 172.6875 283.472656 173.324219 C 283.472656 173.921875 283.890625 174.417969 284.453125 174.542969 L 284.382812 176.0625 C 283.632812 176.214844 283.070312 176.882812 283.070312 177.679688 C 283.070312 178.421875 283.5625 179.050781 284.238281 179.257812 L 284.183594 180.515625 C 284.015625 180.636719 283.851562 180.816406 283.6875 181.054688 L 283.5625 181.238281 C 283.480469 181.359375 283.421875 181.714844 283.417969 182.121094 C 282.726562 182.574219 281.976562 183.03125 281.09375 183.527344 C 279.316406 184.535156 278.167969 186.21875 278.167969 187.820312 C 278.167969 187.871094 278.171875 187.921875 278.171875 187.96875 C 278.152344 187.976562 278.136719 187.992188 278.125 188.011719 C 278.117188 188.039062 278.117188 188.066406 278.132812 188.09375 L 279.859375 190.738281 L 279.847656 190.738281 L 279.847656 192.277344 L 279.421875 192.378906 C 279.382812 192.386719 279.355469 192.421875 279.355469 192.460938 L 279.355469 200.292969 C 279.355469 200.332031 279.382812 200.363281 279.417969 200.375 C 278.1875 200.582031 276.960938 200.855469 275.753906 201.207031 C 275.714844 201.21875 275.691406 201.25 275.691406 201.289062 L 275.691406 206.078125 C 275.691406 206.078125 275.691406 206.078125 275.691406 206.082031 C 275.691406 206.09375 275.695312 206.101562 275.699219 206.113281 C 275.699219 206.113281 275.699219 206.113281 275.699219 206.117188 C 275.707031 206.128906 275.714844 206.136719 275.722656 206.144531 C 275.722656 206.144531 275.722656 206.144531 275.726562 206.144531 C 275.726562 206.144531 275.726562 206.144531 275.730469 206.148438 C 275.738281 206.152344 275.742188 206.15625 275.75 206.15625 C 275.761719 206.160156 277.03125 206.585938 277.203125 207.527344 C 277.207031 207.566406 277.238281 207.589844 277.269531 207.597656 C 277.355469 207.628906 278.699219 208.199219 278.726562 209.628906 C 278.664062 209.652344 278.605469 209.675781 278.546875 209.699219 C 278.515625 209.714844 278.492188 209.746094 278.492188 209.78125 L 278.492188 231.097656 L 276.09375 231.429688 C 275.613281 231.492188 275.253906 231.90625 275.253906 232.386719 L 275.253906 236.753906 C 275.253906 236.757812 275.257812 236.761719 275.257812 236.765625 C 275.257812 236.769531 275.257812 236.773438 275.257812 236.777344 C 275.257812 236.777344 275.257812 236.777344 275.261719 236.777344 C 275.261719 236.78125 275.261719 236.78125 275.261719 236.78125 C 275.261719 236.785156 275.261719 236.785156 275.265625 236.789062 C 275.265625 236.792969 275.265625 236.792969 275.265625 236.792969 C 275.265625 236.792969 275.265625 236.796875 275.269531 236.796875 C 275.269531 236.800781 275.273438 236.804688 275.277344 236.808594 C 275.28125 236.8125 275.28125 236.816406 275.289062 236.820312 C 275.289062 236.820312 275.289062 236.824219 275.292969 236.824219 C 275.292969 236.824219 275.292969 236.828125 275.296875 236.828125 C 275.304688 236.832031 276.203125 237.386719 276.125 238.328125 C 276.121094 238.359375 276.136719 238.386719 276.160156 238.402344 L 277.820312 240.601562 L 277.820312 280.25 C 274.316406 285.242188 272.261719 291.324219 272.261719 297.886719 L 272.261719 299.902344 L 266.832031 299.902344 L 266.832031 313.351562 L 262.171875 315.910156 L 262.171875 302.976562 L 263.417969 301.328125 C 263.4375 301.316406 263.449219 301.296875 263.445312 301.273438 C 263.390625 300.65625 263.902344 300.261719 264.035156 300.167969 C 264.050781 300.15625 264.0625 300.152344 264.0625 300.148438 C 264.066406 300.148438 264.066406 300.148438 264.066406 300.148438 C 264.066406 300.148438 264.070312 300.144531 264.070312 300.144531 C 264.074219 300.140625 264.078125 300.140625 264.082031 300.136719 C 264.082031 300.136719 264.082031 300.132812 264.082031 300.132812 C 264.085938 300.128906 264.085938 300.128906 264.085938 300.125 C 264.089844 300.125 264.089844 300.125 264.089844 300.125 C 264.089844 300.121094 264.089844 300.121094 264.089844 300.121094 C 264.089844 300.121094 264.09375 300.117188 264.09375 300.117188 C 264.09375 300.113281 264.09375 300.113281 264.09375 300.113281 C 264.09375 300.113281 264.09375 300.113281 264.09375 300.109375 C 264.09375 300.109375 264.09375 300.105469 264.09375 300.101562 C 264.09375 300.097656 264.097656 300.097656 264.097656 300.09375 L 264.097656 296.820312 C 264.097656 296.457031 263.828125 296.148438 263.46875 296.101562 L 261.667969 295.851562 L 261.667969 279.863281 C 261.667969 279.839844 261.652344 279.8125 261.628906 279.804688 C 261.582031 279.785156 261.539062 279.765625 261.492188 279.75 C 261.511719 278.675781 262.503906 278.257812 262.582031 278.226562 C 262.609375 278.222656 262.632812 278.203125 262.636719 278.175781 C 262.761719 277.46875 263.714844 277.152344 263.726562 277.148438 C 263.730469 277.144531 263.734375 277.144531 263.738281 277.140625 C 263.738281 277.140625 263.742188 277.140625 263.742188 277.136719 C 263.742188 277.136719 263.746094 277.136719 263.746094 277.136719 C 263.75 277.132812 263.757812 277.125 263.761719 277.117188 C 263.761719 277.117188 263.761719 277.113281 263.761719 277.113281 C 263.765625 277.105469 263.769531 277.097656 263.769531 277.089844 C 263.769531 277.089844 263.769531 277.089844 263.769531 277.085938 L 263.769531 273.496094 C 263.769531 273.464844 263.75 273.441406 263.722656 273.433594 C 262.816406 273.171875 261.898438 272.964844 260.972656 272.808594 C 261 272.800781 261.019531 272.777344 261.019531 272.75 L 261.019531 266.875 C 261.019531 266.84375 261 266.820312 260.972656 266.8125 L 260.648438 266.738281 L 260.648438 265.582031 L 260.640625 265.582031 L 261.9375 263.597656 C 261.949219 263.582031 261.949219 263.558594 261.941406 263.539062 C 261.933594 263.523438 261.921875 263.511719 261.90625 263.507812 C 261.910156 263.46875 261.910156 263.433594 261.910156 263.394531 C 261.910156 262.226562 261.046875 260.976562 259.710938 260.214844 C 259.058594 259.839844 258.527344 259.511719 258.039062 259.171875 L 257.972656 259.128906 C 257.96875 258.820312 257.925781 258.550781 257.863281 258.457031 L 257.769531 258.320312 C 257.648438 258.140625 257.523438 258.007812 257.398438 257.914062 L 257.355469 256.972656 C 257.863281 256.820312 258.234375 256.347656 258.234375 255.789062 C 258.234375 255.191406 257.8125 254.691406 257.25 254.574219 L 257.195312 253.4375 C 257.617188 253.34375 257.933594 252.96875 257.933594 252.523438 C 257.933594 252.042969 257.574219 251.652344 257.113281 251.59375 L 256.996094 248.992188 L 256.878906 251.59375 C 256.417969 251.652344 256.058594 252.042969 256.058594 252.523438 C 256.058594 252.96875 256.375 253.34375 256.792969 253.4375 L 256.742188 254.574219 C 256.179688 254.691406 255.757812 255.191406 255.757812 255.789062 C 255.757812 256.347656 256.125 256.820312 256.632812 256.972656 L 256.59375 257.914062 C 256.46875 258.007812 256.34375 258.140625 256.222656 258.320312 L 256.128906 258.457031 C 256.066406 258.550781 256.023438 258.816406 256.019531 259.121094 C 255.5 259.460938 254.9375 259.800781 254.273438 260.175781 C 252.941406 260.929688 252.082031 262.195312 252.082031 263.394531 C 252.082031 263.433594 252.082031 263.46875 252.085938 263.507812 C 252.070312 263.511719 252.054688 263.523438 252.050781 263.539062 C 252.042969 263.558594 252.042969 263.582031 252.054688 263.597656 L 253.351562 265.582031 L 253.339844 265.582031 L 253.339844 266.738281 L 253.019531 266.8125 C 252.992188 266.820312 252.96875 266.84375 252.96875 266.875 L 252.96875 272.75 C 252.96875 272.777344 252.988281 272.804688 253.015625 272.808594 C 252.09375 272.964844 251.175781 273.171875 250.269531 273.433594 C 250.242188 273.441406 250.222656 273.464844 250.222656 273.496094 L 250.222656 277.085938 C 250.222656 277.089844 250.222656 277.089844 250.222656 277.089844 C 250.222656 277.097656 250.226562 277.105469 250.226562 277.113281 C 250.230469 277.117188 250.230469 277.117188 250.230469 277.117188 C 250.234375 277.125 250.238281 277.132812 250.246094 277.136719 C 250.25 277.140625 250.25 277.140625 250.25 277.140625 C 250.257812 277.144531 250.261719 277.144531 250.265625 277.148438 C 250.277344 277.152344 251.230469 277.46875 251.355469 278.175781 C 251.359375 278.203125 251.382812 278.222656 251.40625 278.226562 C 251.46875 278.253906 252.476562 278.679688 252.5 279.75 C 252.453125 279.769531 252.410156 279.785156 252.363281 279.804688 C 252.339844 279.816406 252.324219 279.839844 252.324219 279.863281 L 252.324219 295.851562 L 250.523438 296.101562 C 250.164062 296.148438 249.894531 296.460938 249.894531 296.820312 L 249.894531 300.09375 C 249.894531 300.097656 249.898438 300.101562 249.898438 300.101562 C 249.898438 300.105469 249.898438 300.109375 249.898438 300.113281 C 249.898438 300.113281 249.898438 300.117188 249.898438 300.117188 C 249.902344 300.117188 249.902344 300.121094 249.902344 300.121094 C 249.902344 300.125 249.902344 300.125 249.90625 300.125 C 249.90625 300.125 249.90625 300.125 249.90625 300.128906 C 249.90625 300.128906 249.910156 300.132812 249.910156 300.136719 C 249.914062 300.140625 249.917969 300.140625 249.917969 300.144531 C 249.921875 300.144531 249.921875 300.148438 249.921875 300.148438 C 249.925781 300.148438 249.925781 300.148438 249.925781 300.152344 C 249.933594 300.15625 250.609375 300.570312 250.546875 301.277344 C 250.546875 301.296875 250.554688 301.320312 250.574219 301.332031 L 251.820312 302.980469 L 251.820312 314.230469 C 250.113281 312.464844 248.046875 311.046875 245.738281 310.105469 C 242.65625 308.847656 240.074219 306.609375 238.5 303.679688 C 238.316406 303.34375 238.167969 303.054688 238.046875 302.816406 L 237.996094 301.4375 C 238.640625 301.292969 239.125 300.71875 239.125 300.027344 C 239.125 299.304688 238.589844 298.703125 237.890625 298.601562 L 237.828125 296.820312 C 238.355469 296.746094 238.765625 296.292969 238.765625 295.742188 C 238.765625 295.167969 238.316406 294.695312 237.746094 294.660156 L 237.679688 292.808594 L 237.609375 294.660156 C 237.042969 294.695312 236.59375 295.167969 236.59375 295.742188 C 236.59375 296.292969 237 296.746094 237.53125 296.820312 L 237.464844 298.601562 C 236.769531 298.703125 236.234375 299.304688 236.234375 300.027344 C 236.234375 300.71875 236.71875 301.292969 237.363281 301.4375 L 237.308594 302.917969 C 235.734375 306.128906 233.007812 308.664062 229.644531 309.9375 C 223.464844 312.269531 218.925781 317.941406 218.214844 324.75 L 214.648438 324.75 L 214.648438 348.617188 L 383.402344 348.617188 L 383.402344 324.75 L 380.3125 324.75 Z M 257.828125 287.613281 L 257.917969 288.472656 L 258.078125 289.269531 L 258.078125 295.570312 L 255.914062 295.570312 L 255.914062 289.269531 L 256.078125 288.472656 L 256.167969 287.613281 L 256.238281 287.613281 L 256.238281 286.0625 L 256.253906 286.03125 C 256.253906 286.027344 256.996094 285.097656 256.996094 285.097656 C 256.996094 285.097656 257.738281 286.027344 257.742188 286.03125 L 257.757812 286.0625 L 257.757812 287.613281 Z M 259.03125 289.585938 L 259.144531 288.789062 L 259.207031 287.929688 L 259.257812 287.929688 L 259.257812 286.382812 L 259.265625 286.347656 C 259.269531 286.34375 259.789062 285.414062 259.789062 285.414062 C 259.789062 285.414062 260.308594 286.34375 260.308594 286.347656 L 260.320312 286.382812 L 260.320312 287.929688 L 260.371094 287.929688 L 260.433594 288.789062 L 260.546875 289.585938 L 260.546875 295.820312 L 259.03125 295.636719 Z M 255.046875 269.40625 C 255.046875 269.011719 255.152344 268.617188 255.347656 268.261719 C 255.542969 267.914062 255.828125 267.601562 256.175781 267.363281 L 256.996094 266.804688 L 257.816406 267.363281 C 258.164062 267.601562 258.453125 267.914062 258.644531 268.261719 C 258.839844 268.617188 258.945312 269.011719 258.945312 269.40625 L 258.945312 272.621094 C 257.648438 272.519531 256.34375 272.519531 255.046875 272.621094 Z M 253.445312 289.585938 L 253.5625 288.789062 L 253.625 287.929688 L 253.671875 287.929688 L 253.671875 286.382812 L 253.683594 286.347656 C 253.683594 286.34375 254.207031 285.414062 254.207031 285.414062 C 254.207031 285.414062 254.726562 286.34375 254.726562 286.347656 L 254.738281 286.382812 L 254.738281 287.929688 L 254.785156 287.929688 L 254.847656 288.789062 L 254.964844 289.585938 L 254.964844 295.636719 L 253.449219 295.820312 L 253.449219 289.585938 Z M 285.828125 220.113281 L 285.945312 221.257812 L 286.164062 222.320312 L 286.164062 230.726562 L 283.277344 230.726562 L 283.277344 222.320312 L 283.492188 221.257812 L 283.613281 220.113281 L 283.707031 220.113281 L 283.707031 218.046875 L 283.726562 218.003906 C 283.730469 218 284.71875 216.757812 284.71875 216.757812 C 284.71875 216.757812 285.710938 218 285.714844 218.003906 L 285.734375 218.046875 L 285.734375 220.113281 Z M 287.429688 222.746094 L 287.582031 221.683594 L 287.667969 220.539062 L 287.734375 220.539062 L 287.734375 218.472656 L 287.746094 218.425781 C 287.75 218.421875 288.441406 217.183594 288.441406 217.183594 C 288.441406 217.183594 289.136719 218.421875 289.136719 218.425781 L 289.152344 218.472656 L 289.152344 220.539062 L 289.21875 220.539062 L 289.300781 221.683594 L 289.453125 222.746094 L 289.453125 231.054688 L 287.433594 230.8125 L 287.433594 222.746094 Z M 282.125 195.835938 C 282.125 195.3125 282.261719 194.785156 282.519531 194.316406 C 282.78125 193.847656 283.160156 193.429688 283.625 193.113281 L 284.71875 192.367188 L 285.816406 193.113281 C 286.277344 193.429688 286.660156 193.847656 286.917969 194.316406 C 287.179688 194.785156 287.316406 195.3125 287.316406 195.835938 L 287.316406 200.128906 C 285.589844 199.988281 283.851562 199.988281 282.125 200.128906 Z M 279.988281 222.746094 L 280.140625 221.683594 L 280.222656 220.539062 L 280.289062 220.539062 L 280.289062 218.472656 L 280.304688 218.425781 C 280.304688 218.421875 281 217.183594 281 217.183594 C 281 217.183594 281.691406 218.421875 281.695312 218.425781 L 281.707031 218.472656 L 281.707031 220.539062 L 281.773438 220.539062 L 281.855469 221.683594 L 282.007812 222.746094 L 282.007812 230.8125 L 279.988281 231.054688 Z M 356.046875 288.578125 L 356.175781 287.679688 L 356.246094 286.714844 L 356.300781 286.714844 L 356.300781 284.96875 L 356.3125 284.929688 C 356.3125 284.925781 356.902344 283.878906 356.902344 283.878906 C 356.902344 283.878906 357.488281 284.925781 357.488281 284.929688 L 357.5 284.96875 L 357.5 286.714844 L 357.554688 286.714844 L 357.625 287.679688 L 357.753906 288.578125 L 357.753906 295.605469 L 356.046875 295.398438 Z M 351.558594 265.832031 C 351.558594 265.390625 351.675781 264.945312 351.894531 264.546875 C 352.113281 264.152344 352.4375 263.800781 352.828125 263.53125 L 353.753906 262.902344 L 354.679688 263.53125 C 355.070312 263.800781 355.394531 264.152344 355.613281 264.546875 C 355.832031 264.945312 355.949219 265.390625 355.949219 265.835938 L 355.949219 269.460938 C 354.488281 269.34375 353.019531 269.34375 351.558594 269.460938 Z M 354.972656 295.328125 L 352.535156 295.328125 L 352.535156 288.222656 L 352.71875 287.324219 L 352.820312 286.355469 L 352.898438 286.355469 L 352.898438 284.609375 L 352.914062 284.570312 C 352.917969 284.566406 353.753906 283.519531 353.753906 283.519531 C 353.753906 283.519531 354.59375 284.566406 354.59375 284.570312 L 354.613281 284.609375 L 354.613281 286.355469 L 354.691406 286.355469 L 354.792969 287.324219 L 354.976562 288.222656 L 354.976562 295.328125 Z M 349.753906 288.578125 L 349.882812 287.679688 L 349.953125 286.714844 L 350.007812 286.714844 L 350.007812 284.96875 L 350.019531 284.929688 C 350.019531 284.925781 350.609375 283.878906 350.609375 283.878906 C 350.609375 283.878906 351.195312 284.925781 351.195312 284.929688 L 351.207031 284.96875 L 351.207031 286.714844 L 351.261719 286.714844 L 351.332031 287.679688 L 351.460938 288.578125 L 351.460938 295.398438 L 349.753906 295.605469 Z M 349.753906 288.578125 " fill-opacity="1" fill-rule="nonzero"/></g></g><g clip-path="url(#dadd1c3e94)"><path fill="#f1f7fb" d="M 204.121094 221.019531 L 136.875 250.707031 L 136.875 341.292969 L 204.121094 363.433594 L 271.371094 341.292969 L 271.371094 250.707031 Z M 204.121094 221.019531 " fill-opacity="1" fill-rule="nonzero"/></g><g clip-path="url(#2d5fa47995)"><path fill="#f1f7fb" d="M 204.121094 221.019531 L 204.121094 363.433594 L 271.371094 341.292969 L 271.371094 250.707031 Z M 204.121094 221.019531 " fill-opacity="1" fill-rule="nonzero"/></g><g clip-path="url(#09feee657a)"><path fill="#3e3f3f" d="M 271.371094 261.496094 L 271.371094 271.285156 L 204.121094 254.691406 L 136.875 271.285156 L 136.875 261.496094 L 204.121094 238.886719 Z M 259.242188 283.167969 L 270.257812 284.894531 L 271.371094 285.066406 L 271.371094 278.855469 L 259.242188 275.929688 Z M 149.003906 275.929688 L 136.875 278.851562 L 136.875 285.0625 L 137.988281 284.890625 L 149.003906 283.167969 Z M 213.242188 275.953125 L 213.242188 264.851562 L 204.121094 262.652344 L 195.007812 264.851562 L 195.007812 275.957031 L 204.121094 274.527344 Z M 180.117188 268.433594 L 161.886719 272.824219 L 161.886719 281.144531 L 180.117188 278.289062 Z M 246.363281 272.824219 L 228.128906 268.433594 L 228.128906 278.289062 L 246.363281 281.144531 Z M 187.429688 268.261719 L 183.507812 272.335938 L 187.402344 276.113281 L 191.324219 271.75 Z M 155.324219 274.785156 L 152.078125 278.152344 L 155.304688 281.277344 L 158.546875 277.667969 Z M 216.921875 271.753906 L 220.84375 276.117188 L 224.738281 272.339844 L 220.816406 268.265625 Z M 249.703125 277.671875 L 252.945312 281.28125 L 256.171875 278.15625 L 252.925781 274.789062 Z M 249.703125 277.671875 " fill-opacity="1" fill-rule="nonzero"/></g><g clip-path="url(#c797684a23)"><path fill="#3e3f3f" d="M 256.171875 278.15625 L 252.945312 281.28125 L 249.703125 277.671875 L 252.925781 274.789062 Z M 228.128906 268.4375 L 228.128906 278.292969 L 246.363281 281.148438 L 246.363281 272.828125 Z M 220.816406 268.265625 L 216.921875 271.753906 L 220.84375 276.117188 L 224.738281 272.339844 Z M 204.121094 254.691406 L 271.371094 271.285156 L 271.371094 261.496094 L 204.121094 238.886719 Z M 271.371094 278.855469 L 259.242188 275.929688 L 259.242188 283.164062 L 270.257812 284.890625 L 271.371094 285.0625 Z M 204.121094 274.527344 L 213.238281 275.957031 L 213.238281 264.851562 L 204.121094 262.652344 Z M 204.121094 274.527344 " fill-opacity="1" fill-rule="nonzero"/></g><g clip-path="url(#4d6918c834)"><g clip-path="url(#a719679bff)"><g clip-path="url(#1f6960963a)"><path fill="#f1f7fb" d="M 350.628906 310.601562 C 353.894531 308.035156 357.03125 305.316406 360.039062 302.445312 C 363.046875 299.578125 365.90625 296.574219 368.625 293.429688 C 371.34375 290.285156 373.90625 287.019531 376.308594 283.628906 C 378.714844 280.242188 380.949219 276.746094 383.019531 273.140625 C 385.089844 269.535156 386.980469 265.84375 388.695312 262.058594 C 390.40625 258.269531 391.9375 254.414062 393.28125 250.480469 C 394.625 246.546875 395.777344 242.5625 396.738281 238.519531 C 397.699219 234.476562 398.464844 230.394531 399.03125 226.277344 C 399.195312 229.503906 399.261719 232.730469 399.234375 235.957031 C 399.203125 239.183594 399.078125 242.410156 398.855469 245.628906 C 398.636719 248.847656 398.316406 252.058594 397.902344 255.261719 C 397.492188 258.460938 396.980469 261.648438 396.378906 264.820312 C 395.773438 267.992188 395.078125 271.140625 394.285156 274.269531 C 393.492188 277.398438 392.609375 280.503906 391.632812 283.578125 C 390.65625 286.65625 389.585938 289.699219 388.429688 292.714844 C 387.269531 295.726562 386.023438 298.703125 384.6875 301.640625 C 383.351562 304.578125 381.929688 307.476562 380.417969 310.328125 C 378.910156 313.183594 377.316406 315.988281 375.640625 318.746094 C 373.964844 321.503906 372.207031 324.210938 370.371094 326.863281 C 368.53125 329.519531 366.617188 332.113281 364.621094 334.652344 C 362.628906 337.191406 360.5625 339.671875 358.421875 342.085938 C 356.28125 344.503906 354.070312 346.851562 351.789062 349.136719 C 349.507812 351.421875 347.160156 353.632812 344.746094 355.777344 C 342.335938 357.921875 339.859375 359.992188 337.324219 361.988281 C 266.859375 417.511719 164.746094 405.402344 109.222656 334.941406 C 53.699219 264.476562 65.808594 162.363281 136.273438 106.839844 C 138.804688 104.839844 141.398438 102.917969 144.046875 101.074219 C 146.695312 99.230469 149.394531 97.464844 152.148438 95.78125 C 154.902344 94.097656 157.707031 92.496094 160.554688 90.980469 C 163.40625 89.464844 166.296875 88.035156 169.230469 86.691406 C 172.167969 85.347656 175.140625 84.089844 178.148438 82.925781 C 181.160156 81.757812 184.199219 80.683594 187.273438 79.699219 C 190.347656 78.710938 193.449219 77.820312 196.578125 77.019531 C 199.703125 76.222656 202.851562 75.515625 206.023438 74.902344 C 209.191406 74.292969 212.375 73.773438 215.578125 73.351562 C 218.777344 72.929688 221.988281 72.605469 225.207031 72.375 C 228.425781 72.144531 231.648438 72.011719 234.878906 71.972656 C 238.105469 71.933594 241.332031 71.992188 244.554688 72.148438 C 247.78125 72.300781 250.996094 72.554688 254.207031 72.898438 C 257.414062 73.246094 260.613281 73.6875 263.792969 74.226562 C 266.976562 74.761719 270.140625 75.394531 273.285156 76.121094 C 276.433594 76.847656 279.550781 77.667969 282.648438 78.578125 C 278.511719 78.171875 274.367188 77.960938 270.210938 77.949219 C 266.058594 77.9375 261.910156 78.125 257.773438 78.511719 C 253.636719 78.898438 249.527344 79.484375 245.445312 80.265625 C 241.363281 81.046875 237.328125 82.019531 233.339844 83.191406 C 229.355469 84.359375 225.429688 85.714844 221.574219 87.261719 C 217.714844 88.804688 213.941406 90.53125 210.25 92.4375 C 206.558594 94.347656 202.964844 96.425781 199.472656 98.679688 C 195.980469 100.929688 192.605469 103.34375 189.34375 105.921875 C 132.828125 150.453125 123.125 232.378906 167.65625 288.894531 C 212.191406 345.410156 294.113281 355.132812 350.628906 310.601562 Z M 350.628906 310.601562 " fill-opacity="1" fill-rule="nonzero"/></g></g></g></svg>